<svg width="17" height="20" viewBox="0 0 17 20" fill="none" xmlns="http://www.w3.org/2000/svg">
<path d="M10.6704 4.34169L11.648 6.69169C11.7798 7.01669 12.1334 7.32503 12.4315 7.39169L14.1995 7.74169C15.3296 7.96669 15.5931 8.95003 14.7819 9.93336L13.4022 11.5917C13.1734 11.8667 13.0416 12.4084 13.1179 12.8L13.5131 14.85C13.8251 16.4667 13.104 17.1 11.9184 16.25L10.2614 15.0667C9.96322 14.85 9.46402 14.85 9.16589 15.0667L7.50882 16.25C6.32322 17.0917 5.60215 16.4667 5.91415 14.85L6.30935 12.8C6.37175 12.4 6.24002 11.8584 6.01122 11.5834L4.63149 9.92503C3.82029 8.95003 4.08376 7.96669 5.21389 7.73336L6.98189 7.38336C7.28002 7.32503 7.63362 7.00836 7.76535 6.68336L8.74295 4.33336C9.27682 3.06669 10.1366 3.06669 10.6704 4.34169Z" fill="#FFBF00"/>
<path d="M5.5467 4.79163H1.3867C1.10243 4.79163 0.866699 4.50829 0.866699 4.16663C0.866699 3.82496 1.10243 3.54163 1.3867 3.54163H5.5467C5.83097 3.54163 6.0667 3.82496 6.0667 4.16663C6.0667 4.50829 5.83097 4.79163 5.5467 4.79163Z" fill="#FFBF00"/>
<path d="M3.4667 16.4584H1.3867C1.10243 16.4584 0.866699 16.175 0.866699 15.8334C0.866699 15.4917 1.10243 15.2084 1.3867 15.2084H3.4667C3.75097 15.2084 3.9867 15.4917 3.9867 15.8334C3.9867 16.175 3.75097 16.4584 3.4667 16.4584Z" fill="#FFBF00"/>
<path d="M2.08003 10.625H1.3867C1.10243 10.625 0.866699 10.3417 0.866699 10C0.866699 9.65833 1.10243 9.375 1.3867 9.375H2.08003C2.3643 9.375 2.60003 9.65833 2.60003 10C2.60003 10.3417 2.3643 10.625 2.08003 10.625Z" fill="#FFBF00"/>
</svg>
